<?xml version="1.0" standalone="no"?>
<!DOCTYPE svg PUBLIC "-//W3C//DTD SVG 20010904//EN"
 "http://www.w3.org/TR/2001/REC-SVG-20010904/DTD/svg10.dtd">
<svg version="1.0" xmlns="http://www.w3.org/2000/svg"
 width="512" height="512" viewBox="0 0 356.815620 323.076934"
 preserveAspectRatio="xMidYMid meet">
<metadata>Created by Svg.la</metadata>
<g transform="translate(-352.500000,662.000005) scale(0.100000,-0.100000)"
fill="#2e87ad" stroke="none">
<path d="M6924 6583 l-9 -38 -60 3 c-71 4 -97 -13 -116 -78 -11 -35 -10 -46 4
-76 21 -44 21 -44 -5 -44 -21 -1 -19 -4 17 -36 22 -19 61 -46 88 -60 47 -24
60 -49 32 -60 -16 -6 -21 -34 -7 -34 5 0 17 9 27 20 25 28 36 25 24 -6 -13
-37 -150 -224 -163 -224 -13 0 -131 72 -170 103 l-30 24 22 46 c12 26 22 55
22 65 0 24 72 137 97 151 21 12 14 14 -42 11 -22 -1 -51 -9 -64 -17 -28 -18
-73 -68 -82 -92 -6 -15 -47 -17 -380 -19 -205 -1 -376 -5 -380 -10 -8 -8 -63
-142 -86 -212 -8 -25 -31 -82 -50 -126 l-35 -82 -36 24 c-19 13 -82 39 -138
57 l-104 32 0 178 c0 177 0 178 -25 203 -25 25 -26 25 -180 22 -109 -2 -158
-7 -167 -16 -9 -9 -14 -66 -18 -200 l-5 -186 -70 -22 c-38 -11 -101 -35 -139
-53 -38 -17 -73 -28 -78 -23 -4 4 -34 73 -67 152 -32 80 -70 171 -84 203 l-26
57 -133 1 c-614 4 -730 4 -737 -1 -10 -5 27 -100 169 -430 123 -287 191 -453
186 -457 -2 -2 -55 -4 -117 -4 -201 0 -199 2 -199 -216 1 -207 2 -208 216
-199 l142 6 7 -53 c8 -59 27 -111 50 -133 13 -14 15 -13 15 13 0 16 -4 33 -8
39 -13 14 -32 88 -32 122 l0 31 -122 3 c-68 2 -124 0 -126 -3 -2 -4 -19 -2
-39 4 -58 18 -65 38 -61 186 3 112 6 132 21 144 14 9 54 12 150 11 l131 -2 29
-68 c15 -38 66 -166 113 -284 46 -118 98 -246 114 -283 24 -57 26 -68 12 -65
-9 2 -23 23 -32 48 l-16 45 -83 3 c-50 2 -88 -2 -96 -8 -7 -6 -16 -29 -20 -50
-6 -37 -11 -41 -78 -74 l-71 -34 -29 24 c-16 13 -32 24 -35 24 -9 0 -142 -137
-142 -145 0 -3 11 -22 25 -43 21 -31 23 -39 11 -57 -7 -11 -21 -43 -30 -71
-16 -48 -19 -52 -59 -60 l-42 -9 0 -95 0 -95 42 -9 c38 -9 42 -13 54 -55 7
-25 19 -59 26 -75 14 -26 13 -31 -6 -57 -12 -15 -21 -34 -21 -41 0 -8 31 -44
69 -82 l69 -68 38 22 39 23 73 -37 c65 -33 72 -39 72 -65 0 -50 20 -60 112
-58 l82 2 11 42 c12 50 14 52 57 63 18 5 47 14 64 21 28 11 34 10 66 -14 19
-15 40 -27 45 -27 19 0 133 103 133 119 0 9 -9 27 -19 40 -18 24 -18 25 16 93
33 63 37 68 68 68 19 0 41 8 51 17 16 17 18 16 35 -7 10 -14 46 -61 79 -105
140 -185 185 -254 215 -325 l32 -75 75 -3 74 -3 24 58 c13 32 39 82 57 111 33
51 306 419 337 455 12 13 31 17 76 17 40 0 62 4 64 13 18 69 19 69 87 86 l67
17 31 -33 c17 -18 35 -33 40 -33 17 0 141 103 141 117 0 7 -7 24 -14 36 -18
26 -16 43 6 77 10 14 24 42 32 62 15 34 19 37 63 40 47 3 48 3 54 43 4 22 9
62 11 89 3 48 2 49 -32 61 -32 11 -35 15 -46 78 -7 37 -15 71 -19 77 -3 5 6
27 20 47 15 23 25 52 25 74 l0 36 142 -4 c78 -3 152 -2 164 1 44 11 54 51 54
214 0 144 -1 150 -25 176 -24 26 -25 26 -152 24 -117 -2 -128 -1 -125 15 2 10
56 149 121 310 80 198 124 293 135 295 9 2 16 7 16 10 0 4 9 22 20 40 l21 33
37 -22 c20 -12 38 -23 40 -25 2 -1 -7 -23 -20 -48 -19 -40 -20 -48 -8 -56 26
-17 40 -11 61 25 20 33 24 35 59 29 34 -6 39 -3 55 24 16 27 20 28 46 19 36
-14 51 -2 85 70 26 56 28 91 9 166 -7 25 -5 27 21 27 68 0 133 77 119 141 -4
15 -15 39 -26 53 l-19 25 35 27 c23 17 32 31 26 37 -11 11 -60 -22 -61 -41 0
-14 -18 -5 -79 39 -21 16 -22 18 -7 54 19 45 19 45 3 45 -8 0 -18 -17 -23 -37z
m32 -98 c75 -50 97 -81 91 -129 -6 -44 -50 -96 -81 -96 -49 1 -167 76 -193
123 -21 37 -15 83 14 117 25 30 30 32 71 26 27 -4 67 -20 98 -41z m-361 -229
c-10 -14 -21 -24 -25 -21 -5 3 1 16 13 29 27 31 34 26 12 -8z m-1378 6 c49 -4
53 -21 53 -205 l0 -172 78 -23 c101 -31 212 -83 212 -100 0 -7 -31 -91 -69
-185 -222 -557 -296 -742 -332 -825 -21 -51 -39 -101 -39 -110 0 -38 -31 22
-118 233 -50 121 -94 229 -98 240 -4 11 -34 83 -67 160 -120 281 -197 473
-197 489 0 14 147 78 220 96 25 6 53 13 63 16 15 5 17 22 17 178 0 185 4 202
50 208 24 3 183 3 227 0z m-838 -207 c27 -66 63 -151 81 -190 29 -65 115 -272
197 -475 19 -47 43 -105 55 -130 31 -67 103 -237 168 -395 32 -77 92 -223 134
-325 42 -102 80 -188 85 -193 4 -4 41 72 81 170 40 98 122 297 183 443 163
396 159 385 332 815 l161 400 342 3 c277 2 342 0 342 -11 0 -7 -4 -17 -9 -22
-5 -6 -72 -167 -149 -360 -77 -192 -156 -388 -175 -435 -36 -86 -220 -591
-251 -687 -18 -55 -160 -293 -249 -416 -50 -70 -397 -536 -467 -627 -19 -25
-48 -75 -64 -113 l-28 -67 -47 0 -46 0 -23 63 c-16 44 -55 106 -135 212 -291
386 -555 762 -610 871 -8 16 -62 151 -121 299 -115 290 -151 376 -277 670 -85
199 -194 459 -234 558 -17 41 -21 59 -12 62 20 8 272 10 485 5 l203 -5 48
-120z m38 83 c-3 -8 -6 -5 -6 6 -1 11 2 17 5 13 3 -3 4 -12 1 -19z m43 -132
c0 -26 -6 -18 -14 19 -5 22 -4 26 4 15 5 -8 10 -24 10 -34z m129 -316 c0 -10
-3 -8 -9 5 -12 27 -12 43 0 25 5 -8 9 -22 9 -30z m921 -234 c0 -3 -4 -8 -10
-11 -5 -3 -10 -1 -10 4 0 6 5 11 10 11 6 0 10 -2 10 -4z m-770 -100 c0 -28
-13 -11 -16 21 -2 21 -1 24 6 13 5 -8 10 -24 10 -34z m1768 -93 c8 -12 12 -59
12 -149 0 -130 0 -133 -26 -153 -23 -18 -38 -20 -170 -18 -79 1 -144 2 -145 2
0 0 -2 -20 -5 -45 -3 -25 -16 -62 -30 -82 l-24 -37 17 -90 c14 -76 21 -91 40
-100 13 -6 30 -11 37 -11 11 0 12 -10 5 -47 -17 -94 -16 -93 -54 -93 -41 0
-44 -3 -94 -101 -35 -68 -37 -78 -25 -100 7 -13 13 -29 14 -36 0 -10 -92 -83
-106 -83 -4 0 -21 13 -39 29 l-32 28 -72 -18 c-89 -23 -89 -23 -96 -63 -6 -29
-10 -33 -42 -34 -44 -2 -43 1 47 122 58 78 79 99 118 116 50 23 112 76 112 97
0 7 4 13 8 13 4 0 19 21 31 48 19 38 24 66 27 147 3 107 12 139 146 495 78
207 54 185 204 182 107 -2 131 -5 142 -19z m-1708 -53 c0 -16 -2 -30 -4 -30
-2 0 -6 14 -8 30 -3 17 -1 30 4 30 4 0 8 -13 8 -30z m596 -7 c-18 -33 -21 -26
-6 13 6 15 13 24 16 21 3 -3 -1 -18 -10 -34z m-536 -125 c0 -7 3 -24 6 -38 4
-18 3 -21 -4 -10 -17 27 -24 60 -13 60 6 0 11 -6 11 -12z m367 -300 c-3 -8 -6
-5 -6 6 -1 11 2 17 5 13 3 -3 4 -12 1 -19z m-1062 -178 c13 -39 22 -48 63 -67
43 -20 57 -36 132 -150 88 -134 217 -318 257 -366 25 -31 31 -85 11 -92 -7 -2
-28 -6 -47 -8 -29 -3 -35 -8 -48 -47 -8 -24 -26 -61 -39 -82 l-25 -39 21 -26
c11 -14 20 -29 20 -34 0 -4 -21 -25 -46 -45 l-46 -38 -42 23 -42 23 -79 -28
c-44 -15 -82 -29 -84 -31 -2 -1 -7 -20 -10 -40 l-6 -38 -73 -3 c-54 -2 -72 0
-72 10 0 29 -22 88 -32 88 -6 0 -41 15 -78 34 l-67 34 -41 -23 c-25 -14 -42
-19 -42 -12 0 6 -21 32 -46 58 l-47 47 22 35 21 35 -25 48 c-14 26 -30 64 -35
84 -8 31 -15 38 -47 46 l-38 9 -3 72 c-3 77 -6 73 58 87 21 4 30 18 50 77 14
39 28 73 32 76 16 9 7 40 -17 63 l-25 24 52 53 c57 58 66 61 103 37 22 -15 28
-14 92 16 37 17 75 35 83 39 8 4 18 26 23 49 9 45 19 49 104 48 42 0 43 -2 58
-46z m1813 -51 c-18 -12 -22 14 -6 43 l13 23 3 -29 c2 -16 -2 -32 -10 -37z
m-908 37 c0 -3 -4 -8 -10 -11 -5 -3 -10 -1 -10 4 0 6 5 11 10 11 6 0 10 -2 10
-4z m900 -100 c-1 -21 -68 -103 -89 -109 -28 -7 -27 0 15 70 28 48 40 60 55
56 10 -3 19 -10 19 -17z"/>
<path d="M6820 6450 c0 -15 5 -20 18 -18 9 2 17 10 17 18 0 8 -8 16 -17 18
-13 2 -18 -3 -18 -18z"/>
<path d="M6839 6350 c25 -21 41 -26 41 -12 0 9 -44 32 -58 32 -4 -1 4 -10 17
-20z"/>
<path d="M6952 6353 c2 -10 12 -18 23 -18 11 0 21 8 23 18 3 13 -3 17 -23 17
-20 0 -26 -4 -23 -17z"/>
<path d="M3989 4387 c-88 -33 -155 -94 -191 -172 -18 -40 -22 -68 -23 -140 0
-78 3 -96 26 -140 60 -113 156 -175 279 -183 99 -5 171 21 238 86 73 71 96
129 97 232 0 67 -5 95 -23 134 -58 127 -148 187 -286 193 -51 2 -94 -2 -117
-10z m81 -42 c0 -34 -10 -42 -44 -36 -4 1 -23 -7 -41 -18 -32 -18 -34 -18 -49
-2 -9 10 -16 21 -16 25 0 8 120 66 138 66 7 0 12 -14 12 -35z m140 3 c49 -23
61 -43 39 -65 -8 -8 -21 -7 -48 7 -20 11 -48 23 -63 29 -18 7 -26 17 -25 31 2
27 34 26 97 -2z m-8 -87 c115 -70 139 -220 52 -326 -60 -74 -150 -92 -250 -48
-21 9 -43 16 -49 14 -5 -1 -7 0 -3 4 4 4 -4 19 -18 34 -66 71 -56 230 18 299
65 59 173 70 250 23z m-303 -10 c8 -14 6 -29 -9 -57 -10 -22 -21 -47 -24 -56
-3 -11 -15 -18 -31 -18 -32 0 -33 25 -4 83 36 72 50 82 68 48z m434 -9 c14
-15 33 -46 41 -70 14 -40 14 -42 -4 -43 -11 -1 -25 -2 -31 -3 -6 -1 -19 24
-30 54 -22 64 -22 62 -20 78 2 19 15 14 44 -16z m-477 -187 c3 -14 4 -32 0
-40 -3 -8 3 -20 12 -27 30 -23 53 -77 42 -98 -6 -11 -17 -17 -25 -14 -21 9
-67 108 -73 159 -4 41 -3 45 17 45 14 0 23 -8 27 -25z m532 -4 c4 -26 -25
-111 -38 -111 -4 0 -13 7 -20 15 -12 14 -8 53 11 103 12 30 43 25 47 -7z m-70
-158 c3 -21 -29 -53 -54 -53 -24 0 -25 33 -2 57 26 28 52 26 56 -4z m-278 -54
c30 -5 41 -45 16 -55 -19 -7 -67 11 -102 39 -24 18 -24 20 -8 38 16 18 17 18
43 0 14 -11 37 -21 51 -22z m194 3 c8 -14 -8 -31 -47 -47 -57 -24 -77 -20 -77
14 0 27 4 30 38 34 70 7 81 7 86 -1z"/>
</g>
</svg>
